    <svg
      width="373"
      height="168"
      viewBox="0 0 373 168"
      fill="none"
      xmlns="http://www.w3.org/2000/svg"
    >
      <path
        opacity="0.44"
        fill-rule="evenodd"
        clip-rule="evenodd"
        d="M274.88 166.411C274.88 167.239 275.551 167.911 276.38 167.911C277.208 167.911 277.88 167.239 277.88 166.411L277.88 1.50004C277.88 0.671607 277.208 3.72505e-05 276.38 3.7178e-05C275.551 3.71056e-05 274.88 0.671607 274.88 1.50004L274.88 166.411ZM248.704 153.323C248.704 154.151 249.376 154.823 250.204 154.823C251.033 154.823 251.704 154.151 251.704 153.323L251.704 17.2058C251.704 16.3774 251.033 15.7058 250.204 15.7058C249.376 15.7058 248.704 16.3774 248.704 17.2058L248.704 153.323ZM302.556 154.823C301.727 154.823 301.056 154.151 301.056 153.323L301.056 17.2058C301.056 16.3774 301.727 15.7058 302.556 15.7058C303.384 15.7058 304.056 16.3774 304.056 17.2058L304.056 153.323C304.056 154.151 303.384 154.823 302.556 154.823ZM222.527 132.381C222.527 133.209 223.199 133.881 224.027 133.881C224.856 133.881 225.527 133.209 225.527 132.381L225.527 35.5286C225.527 34.7002 224.856 34.0286 224.027 34.0286C223.199 34.0286 222.527 34.7002 222.527 35.5286L222.527 132.381ZM328.733 133.881C327.904 133.881 327.233 133.209 327.233 132.381L327.233 35.5287C327.233 34.7002 327.904 34.0287 328.733 34.0287C329.561 34.0286 330.233 34.7002 330.233 35.5286L330.233 132.381C330.233 133.209 329.561 133.881 328.733 133.881ZM170.176 132.381C170.176 133.209 170.847 133.881 171.676 133.881C172.504 133.881 173.176 133.209 173.176 132.381L173.176 35.5286C173.176 34.7002 172.504 34.0286 171.676 34.0286C170.847 34.0287 170.176 34.7002 170.176 35.5287L170.176 132.381ZM197.85 118.175C197.022 118.175 196.35 117.504 196.35 116.675L196.35 53.8523C196.35 53.0239 197.022 52.3523 197.85 52.3523C198.678 52.3523 199.35 53.0239 199.35 53.8523L199.35 116.675C199.35 117.504 198.678 118.175 197.85 118.175ZM353.41 116.675C353.41 117.504 354.081 118.175 354.91 118.175C355.738 118.175 356.41 117.504 356.41 116.675L356.41 53.8523C356.41 53.0239 355.738 52.3523 354.91 52.3523C354.081 52.3523 353.41 53.0239 353.41 53.8523L353.41 116.675ZM145.499 118.175C144.67 118.175 143.999 117.504 143.999 116.675L143.999 53.8523C143.999 53.0239 144.67 52.3523 145.499 52.3523C146.327 52.3523 146.999 53.0239 146.999 53.8523L146.999 116.675C146.999 117.504 146.327 118.175 145.499 118.175ZM91.6456 116.675C91.6456 117.504 92.3172 118.175 93.1456 118.175C93.9741 118.175 94.6456 117.504 94.6456 116.675L94.6456 53.8523C94.6456 53.0239 93.9741 52.3523 93.1456 52.3523C92.3172 52.3523 91.6456 53.0239 91.6456 53.8523L91.6456 116.675ZM119.322 105.087C118.493 105.087 117.822 104.416 117.822 103.587L117.822 66.9405C117.822 66.112 118.493 65.4405 119.322 65.4405C120.15 65.4405 120.822 66.112 120.822 66.9405L120.822 103.587C120.822 104.416 120.15 105.087 119.322 105.087ZM65.4701 103.587C65.4701 104.416 66.1417 105.087 66.9701 105.087C67.7986 105.087 68.4701 104.416 68.4701 103.587L68.4701 66.9405C68.4701 66.112 67.7986 65.4405 66.9701 65.4405C66.1417 65.4405 65.4701 66.112 65.4701 66.9405L65.4701 103.587ZM373.233 105.087C372.405 105.087 371.733 104.416 371.733 103.587L371.733 66.9405C371.733 66.112 372.405 65.4405 373.233 65.4405C374.062 65.4405 374.733 66.112 374.733 66.9405L374.733 103.587C374.733 104.416 374.062 105.087 373.233 105.087ZM13.1173 90.4991C13.1173 91.3276 13.7888 91.9991 14.6173 91.9991C15.4457 91.9991 16.1173 91.3276 16.1173 90.4991L16.1173 77.411C16.1173 76.5825 15.4457 75.911 14.6173 75.911C13.7888 75.911 13.1173 76.5825 13.1173 77.411L13.1173 90.4991ZM-37.7356 91.9991C-38.564 91.9991 -39.2356 91.3276 -39.2356 90.4991L-39.2356 77.411C-39.2356 76.5826 -38.564 75.911 -37.7356 75.911C-36.9072 75.911 -36.2356 76.5825 -36.2356 77.411L-36.2356 90.4991C-36.2356 91.3276 -36.9072 91.9991 -37.7356 91.9991ZM-65.4126 87.8818C-65.4126 88.7102 -64.741 89.3818 -63.9126 89.3818C-63.0842 89.3818 -62.4126 88.7102 -62.4126 87.8818L-62.4126 82.6465C-62.4126 81.8181 -63.0842 81.1465 -63.9126 81.1465C-64.741 81.1465 -65.4126 81.8181 -65.4126 82.6465L-65.4126 87.8818ZM-94.2063 85.2644C-94.2063 84.436 -93.5347 83.7644 -92.7063 83.7644L-90.0886 83.7644C-89.2602 83.7644 -88.5886 84.436 -88.5886 85.2644C-88.5886 86.0929 -89.2602 86.7644 -90.0886 86.7644L-92.7063 86.7644C-93.5347 86.7644 -94.2063 86.0929 -94.2063 85.2644ZM-121.5 83.7644C-122.328 83.7644 -123 84.436 -123 85.2644C-123 86.0929 -122.328 86.7644 -121.5 86.7644L-118.882 86.7644C-118.054 86.7644 -117.382 86.0929 -117.382 85.2644C-117.382 84.436 -118.054 83.7644 -118.882 83.7644L-121.5 83.7644ZM40.7931 97.2345C39.9647 97.2345 39.2931 96.563 39.2931 95.7345L39.2931 72.1759C39.2931 71.3474 39.9647 70.6759 40.7931 70.6759C41.6216 70.6759 42.2931 71.3474 42.2931 72.1759L42.2931 95.7345C42.2931 96.563 41.6216 97.2345 40.7931 97.2345ZM-13.0582 95.7345C-13.0582 96.563 -12.3867 97.2345 -11.5582 97.2345C-10.7298 97.2345 -10.0582 96.563 -10.0582 95.7345L-10.0582 74.7935C-10.0582 73.9651 -10.7298 73.2935 -11.5582 73.2935C-12.3866 73.2935 -13.0582 73.9651 -13.0582 74.7935L-13.0582 95.7345Z"
        fill="white"
      ></path>
    </svg>