<svg
          data-type="restart"
          width="18"
          height="18"
          viewBox="0 0 18 18"
          fill="none"
          xmlns="http://www.w3.org/2000/svg"
        >
          <path
            d="M9.95676 17.9495C13.9687 17.5451 17.1841 14.6587 17.6416 11.0479C18.2422 6.32663 14.1648 2.3077 9.05385 2.25622V0.138289C9.05385 0.0206254 8.89043 -0.0418831 8.78012 0.0316563L3.93469 3.2343C3.85298 3.28945 3.85298 3.39609 3.93469 3.45124L8.78012 6.65388C8.89043 6.72742 9.05385 6.66124 9.05385 6.54725V4.43299C12.645 4.48447 15.5212 7.23485 15.2761 10.5221C15.0678 13.3497 12.5061 15.6441 9.36436 15.8243C6.03465 16.0155 3.20338 13.8755 2.69678 11.0442C2.60281 10.5184 2.09212 10.136 1.5038 10.136C0.772492 10.136 0.200518 10.7206 0.314913 11.3714C1.02579 15.4051 5.16443 18.4312 9.95676 17.9495Z"
            fill="white"
          ></path>
        </svg>