   <svg
      class="voice-card__fill-line voice-card__fill-line-two"
      width="141"
      height="204"
      viewBox="0 0 141 204"
      fill="none"
      xmlns="http://www.w3.org/2000/svg"
    >
      <g>
        <path
          opacity="0.14"
          d="M169.369 197.393C165.166 200.976 158.854 200.474 155.271 196.271L3.24379 17.9346C1.45233 15.8331 1.70365 12.6773 3.80512 10.8858L159.687 -122L321.446 67.7513L169.369 197.393Z"
          fill="url(#paint0_linear)"
        ></path>
        <path
          opacity="0.16"
          d="M163.499 181.465C161.398 183.257 158.242 183.005 156.45 180.904L11.5128 10.8847C9.72132 8.78319 9.97263 5.62734 12.0741 3.83589L24.0172 -6.34533C26.1187 -8.13678 29.2745 -7.88545 31.0659 -5.784L176.004 164.235C177.795 166.337 177.544 169.493 175.442 171.284L163.499 181.465Z"
          fill="white"
        ></path>
      </g>
      <defs>
        <linearGradient
          id="paint0_linear"
          x1="-211.969"
          y1="376.576"
          x2="61.6081"
          y2="-53.4695"
          gradientUnits="userSpaceOnUse"
        >
          <stop offset="0.663225" stop-color="#BBBBBB"></stop>
          <stop offset="1" stop-color="#F7F7F7"></stop>
        </linearGradient>
      </defs>
    </svg>